<svg width="86" height="42" viewBox="0 0 86 42" fill="none" xmlns="http://www.w3.org/2000/svg">
<g id="Frame 5">
<rect width="86" height="42" rx="5" fill="#F4F4F4"/>
<g id="XMLID_28_">
<path id="XMLID_30_" d="M38.2709 7.75634C34.9163 8.90539 32.0553 11.4194 30.4667 14.5889C29.9115 15.684 29.5104 16.8484 29.2714 18.0514C28.6622 21.0436 29.0863 24.2285 30.4667 26.9584C31.3613 28.7398 32.6491 30.3207 34.2069 31.5546C35.6798 32.7268 37.3918 33.5905 39.2117 34.0763C41.5021 34.6933 43.9467 34.6778 46.2602 34.1534C48.3501 33.6753 50.3243 32.6728 51.8975 31.223C53.5632 29.6884 54.7508 27.6756 55.3831 25.5086C56.0695 23.1412 56.162 20.6194 55.7302 18.198C51.4116 18.198 47.0931 18.198 42.7668 18.198C42.7668 19.9871 42.7668 21.7839 42.7668 23.573C45.2654 23.573 47.7717 23.573 50.2703 23.573C49.9773 25.2927 48.9593 26.8582 47.5095 27.8299C46.5995 28.4391 45.5585 28.8401 44.4788 29.0252C43.3915 29.2103 42.2733 29.2334 41.1936 29.0175C40.0909 28.8015 39.0421 28.3388 38.1244 27.6911C36.6592 26.6654 35.541 25.1539 34.9703 23.465C34.3842 21.7453 34.3765 19.8251 34.9703 18.1054C35.379 16.8947 36.0654 15.7688 36.9676 14.8588C38.0781 13.7175 39.5202 12.9078 41.078 12.5761C42.4121 12.2908 43.8156 12.3448 45.1189 12.7381C46.2294 13.0774 47.2473 13.6789 48.0879 14.4809C48.9362 13.6404 49.7768 12.7921 50.625 11.9515C51.0646 11.4965 51.535 11.0647 51.9669 10.5942C50.6867 9.40665 49.1752 8.4504 47.5327 7.84889C44.5868 6.74611 41.2476 6.72298 38.2709 7.75634Z" fill="white"/>
<path id="XMLID_31_" d="M38.271 7.75626C41.2477 6.72289 44.5869 6.74603 47.5481 7.84109C49.1907 8.4426 50.6945 9.39885 51.9824 10.5864C51.5505 11.0491 51.0878 11.4887 50.6405 11.9437C49.7922 12.7843 48.9517 13.6326 48.1034 14.4731C47.2628 13.6711 46.2449 13.0619 45.1344 12.7303C43.8311 12.337 42.4276 12.283 41.0935 12.5683C39.5357 12.9 38.0936 13.7174 36.9831 14.851C36.0809 15.761 35.3945 16.8869 34.9858 18.0976C33.482 16.9332 31.9783 15.761 30.4745 14.5965C32.0554 11.4193 34.9164 8.9053 38.271 7.75626Z" fill="#E94435"/>
<path id="XMLID_32_" d="M29.2714 18.0514C29.5104 16.8483 29.9192 15.6839 30.4667 14.5888C31.9705 15.7533 33.4743 16.9254 34.978 18.0899C34.3842 19.8096 34.3919 21.7298 34.978 23.4495C33.4743 24.614 31.9705 25.7862 30.4667 26.9506C29.0863 24.2361 28.6622 21.0435 29.2714 18.0514Z" fill="#F8BB15"/>
<path id="XMLID_33_" d="M42.7746 18.1902C47.0931 18.1902 51.4117 18.1902 55.7379 18.1902C56.1698 20.6117 56.0772 23.1334 55.3909 25.5009C54.7586 27.6678 53.571 29.6883 51.9052 31.2152C50.4477 30.0816 48.9825 28.948 47.5327 27.8144C48.9825 26.8504 50.0004 25.2772 50.2935 23.5575C47.7949 23.5575 45.2886 23.5575 42.79 23.5575C42.7669 21.7761 42.7746 19.987 42.7746 18.1902Z" fill="#547DBE"/>
<path id="XMLID_34_" d="M30.4667 26.9584C31.9705 25.7939 33.4742 24.6217 34.978 23.4573C35.5487 25.1538 36.6669 26.6576 38.1321 27.6833C39.0498 28.3311 40.0986 28.786 41.2013 29.0097C42.281 29.2256 43.4069 29.2025 44.4865 29.0174C45.5662 28.8323 46.6072 28.4313 47.5172 27.8221C48.9747 28.9557 50.4399 30.0893 51.8897 31.2229C50.3165 32.6804 48.3424 33.6753 46.2525 34.1534C43.9467 34.6778 41.5021 34.6932 39.204 34.0763C37.3841 33.5904 35.6721 32.7267 34.1991 31.5545C32.6491 30.313 31.3612 28.7321 30.4667 26.9584Z" fill="#34A751"/>
</g>
</g>
</svg>
